<svg width="50" height="49" viewBox="0 0 50 49" fill="none" xmlns="http://www.w3.org/2000/svg">
<path fill-rule="evenodd" clip-rule="evenodd" d="M25 0C11.1916 0 0 11.2454 0 25.1202C0 36.217 7.16112 45.6339 17.097 48.9584C18.3477 49.185 18.7989 48.4118 18.7989 47.7469C18.7989 47.1501 18.7788 45.5684 18.7713 43.4755C11.8157 44.9916 10.3469 40.1056 10.3469 40.1056C9.21396 37.2042 7.57219 36.431 7.57219 36.431C5.30379 34.872 7.74514 34.9073 7.74514 34.9073C10.2567 35.0836 11.5726 37.4964 11.5726 37.4964C13.8034 41.3347 17.4278 40.2265 18.8465 39.5843C19.0746 37.9598 19.7263 36.8516 20.4381 36.2245C14.8887 35.5924 9.05354 33.4365 9.05354 23.808C9.05354 21.0703 10.0286 18.8238 11.6202 17.0708C11.3671 16.4336 10.5023 13.8773 11.8684 10.4218C11.8684 10.4218 13.9663 9.74433 18.7412 12.9933C20.7805 12.4358 22.8841 12.1513 24.9975 12.147C27.1109 12.1505 29.2146 12.435 31.2538 12.9933C36.0312 9.74181 38.1266 10.4218 38.1266 10.4218C39.4927 13.8773 38.6355 16.4336 38.3748 17.0708C39.9789 18.8238 40.9414 21.0678 40.9414 23.808C40.9414 33.4617 35.1013 35.5823 29.5318 36.2044C30.4216 36.9801 31.2237 38.5114 31.2237 40.8536C31.2237 44.2134 31.1936 46.9234 31.1936 47.7469C31.1936 48.4194 31.6398 49.2002 32.9156 48.9533C42.8464 45.6238 50 36.2144 50 25.1202C50 11.2454 38.8084 0 25 0Z" fill="black"/>
</svg>
