<svg width="50" height="50" viewBox="0 0 50 50" fill="none" xmlns="http://www.w3.org/2000/svg">
<path d="M33.4375 25C33.4375 20.3125 29.6875 16.5625 25 16.5625C20.3125 16.5625 16.5625 20.3125 16.5625 25C16.5625 29.6875 20.3125 33.4375 25 33.4375C29.6875 33.4375 33.4375 29.6875 33.4375 25ZM37.8125 25C37.8125 32.1875 32.1875 37.8125 25 37.8125C17.8125 37.8125 12.1875 32.1875 12.1875 25C12.1875 17.8125 17.8125 12.1875 25 12.1875C32.1875 12.1875 37.8125 17.8125 37.8125 25ZM41.25 11.5625C41.25 13.4375 40 14.6875 38.125 14.6875C36.25 14.6875 35 13.4375 35 11.5625C35 9.6875 36.25 8.4375 38.125 8.4375C40 8.4375 41.25 10 41.25 11.5625ZM25 4.375C21.25 4.375 13.4375 4.0625 10.3125 5.3125C8.125 6.25 6.25 8.125 5.625 10.3125C4.375 13.4375 4.6875 21.25 4.6875 25C4.6875 28.75 4.375 36.5625 5.625 39.6875C6.25 41.875 8.125 43.75 10.3125 44.375C13.4375 45.625 21.5625 45.3125 25 45.3125C28.4375 45.3125 36.5625 45.625 39.6875 44.375C41.875 43.4375 43.4375 41.875 44.375 39.6875C45.625 36.25 45.3125 28.4375 45.3125 25C45.3125 21.5625 45.625 13.4375 44.375 10.3125C43.75 8.125 41.875 6.25 39.6875 5.625C36.5625 4.0625 28.75 4.375 25 4.375ZM50 25V35.3125C50 39.0625 48.75 42.8125 45.9375 45.9375C43.125 48.75 39.375 50 35.3125 50H14.6875C10.9375 50 7.1875 48.75 4.0625 45.9375C1.5625 43.125 0 39.375 0 35.3125V25V14.6875C0 10.625 1.5625 6.875 4.0625 4.0625C7.1875 1.5625 10.9375 0 14.6875 0H35.3125C39.0625 0 42.8125 1.25 45.9375 4.0625C48.4375 6.875 50 10.625 50 14.6875V25Z" fill="black"/>
</svg>
